<svg width="24" height="22" viewBox="0 0 24 22" fill="none" xmlns="http://www.w3.org/2000/svg">
<path d="M11.7058 18.0223L11.5899 18.1382L11.4624 18.0223C5.95722 13.0271 2.31798 9.72394 2.31798 6.37445C2.31798 4.05647 4.05647 2.31798 6.37445 2.31798C8.1593 2.31798 9.89779 3.47698 10.5121 5.0532H12.6678C13.282 3.47698 15.0205 2.31798 16.8054 2.31798C19.1234 2.31798 20.8619 4.05647 20.8619 6.37445C20.8619 9.72394 17.2226 13.0271 11.7058 18.0223ZM16.8054 0C14.7887 0 12.8532 0.938783 11.5899 2.4107C10.3266 0.938783 8.3911 0 6.37445 0C2.80476 0 0 2.79317 0 6.37445C0 10.7439 3.94057 14.3251 9.90938 19.7376L11.5899 21.2675L13.2705 19.7376C19.2393 14.3251 23.1798 10.7439 23.1798 6.37445C23.1798 2.79317 20.3751 0 16.8054 0Z" fill="#ff0000"/>
</svg>
