<svg width="17" height="22" viewBox="0 0 17 22" fill="none" xmlns="http://www.w3.org/2000/svg">
<path d="M8.5 11.375C9.08438 11.375 9.58481 11.1667 10.0013 10.7502C10.4171 10.3345 10.625 9.83438 10.625 9.25C10.625 8.66562 10.4171 8.16519 10.0013 7.74869C9.58481 7.3329 9.08438 7.125 8.5 7.125C7.91562 7.125 7.41554 7.3329 6.99975 7.74869C6.58325 8.16519 6.375 8.66562 6.375 9.25C6.375 9.83438 6.58325 10.3345 6.99975 10.7502C7.41554 11.1667 7.91562 11.375 8.5 11.375ZM8.5 19.1844C10.6604 17.201 12.263 15.399 13.3078 13.7784C14.3526 12.1584 14.875 10.7198 14.875 9.4625C14.875 7.53229 14.2595 5.95165 13.0284 4.72056C11.798 3.49019 10.2885 2.875 8.5 2.875C6.71146 2.875 5.20165 3.49019 3.97056 4.72056C2.74019 5.95165 2.125 7.53229 2.125 9.4625C2.125 10.7198 2.6474 12.1584 3.69219 13.7784C4.73698 15.399 6.33958 17.201 8.5 19.1844ZM8.5 22C5.64896 19.574 3.51971 17.3204 2.11225 15.2393C0.704083 13.1589 0 11.2333 0 9.4625C0 6.80625 0.854604 4.6901 2.56381 3.11406C4.27231 1.53802 6.25104 0.75 8.5 0.75C10.749 0.75 12.7277 1.53802 14.4362 3.11406C16.1454 4.6901 17 6.80625 17 9.4625C17 11.2333 16.2963 13.1589 14.8888 15.2393C13.4806 17.3204 11.351 19.574 8.5 22Z" fill="#020D0D"/>
</svg>
