<svg width="18" height="23" viewBox="0 0 18 23" fill="none" xmlns="http://www.w3.org/2000/svg">
<path d="M9 11.7134H17M17 11.7134L13.5714 15.142M17 11.7134L13.5714 8.28488M17 4.85631V3.71345C17 3.10724 16.7592 2.52586 16.3305 2.0972C15.9019 1.66855 15.3205 1.42773 14.7143 1.42773H3.28571C2.67951 1.42773 2.09812 1.66855 1.66947 2.0972C1.24082 2.52586 1 3.10724 1 3.71345V19.7134C1 20.3197 1.24082 20.901 1.66947 21.3297C2.09812 21.7583 2.67951 21.9992 3.28571 21.9992H14.7143C15.3205 21.9992 15.9019 21.7583 16.3305 21.3297C16.7592 20.901 17 20.3197 17 19.7134V18.5706" stroke="#020D0D" stroke-width="1.71429" stroke-linecap="round" stroke-linejoin="round"/>
</svg>
